<?xml version="1.0" encoding="utf-8"?>
<!-- Generator: Adobe Illustrator 21.0.0, SVG Export Plug-In . SVG Version: 6.00 Build 0)  -->
<svg version="1.1" id="Capa_1" xmlns="http://www.w3.org/2000/svg" xmlns:xlink="http://www.w3.org/1999/xlink" x="0px" y="0px"
	 viewBox="0 0 512 512" style="enable-background:new 0 0 512 512;" xml:space="preserve">
<style type="text/css">
	.st0{fill:#CCEDDE;}
	.st1{fill:#47846B;}
</style>
<g>
	<circle class="st0" cx="256" cy="256" r="203"/>
	<g>
		<g>
			<path class="st1" d="M177.8,334.2c-7,0-12.6,5.7-12.6,12.6c0,7,5.7,12.6,12.6,12.6s12.6-5.7,12.6-12.6S184.8,334.2,177.8,334.2z
				 M177.8,350.9c-2.3,0-4.1-1.8-4.1-4.1s1.8-4.1,4.1-4.1c2.3,0,4.1,1.8,4.1,4.1C181.9,349.1,180.1,350.9,177.8,350.9z"/>
		</g>
	</g>
	<g>
		<path class="st1" d="M381.3,157.3c-11.8-11.8-27.6-18.8-44.3-19.6c-16-0.8-31.7,4.1-44.3,13.8l-3.2-0.4
			c-9.6-1.1-29.5-3.4-34.2-3.9c-6.8-0.8-13.7,1.2-19,5.6l-40.6,33.6c-6.5,5.4-11.2,12.6-13.4,20.8c-4.5,16.2-12.8,44.9-18.6,56.4
			l-17.8,17.8l-1.2-1.2c-1.9-1.9-4.4-2.9-7-2.9c-2.6,0-5.1,1-7,2.9L113.9,297c-3.9,3.9-3.9,10.1,0,14l4.4,4.4c1.6,1.6,4.2,1.6,5.9,0
			s1.6-4.2,0-5.9l-4.4-4.4c-0.4-0.4-0.5-0.9-0.5-1.1c0-0.2,0.1-0.7,0.5-1.1l16.7-16.7c0.4-0.4,0.9-0.5,1.1-0.5
			c0.2,0,0.7,0.1,1.1,0.5l4.1,4.1c0,0,0,0,0,0l26.2,26.2l30.3,30.3c0.4,0.4,0.5,0.9,0.5,1.1c0,0.2-0.1,0.7-0.5,1.1l-16.7,16.7
			c-0.4,0.4-0.9,0.5-1.1,0.5c-0.2,0-0.7-0.1-1.1-0.5L143,328.3c-1.6-1.6-4.2-1.6-5.9,0s-1.6,4.2,0,5.9l37.4,37.4
			c1.9,1.9,4.5,2.9,7,2.9c2.5,0,5.1-1,7-2.9l16.7-16.7c1.9-1.9,2.9-4.4,2.9-7c0-2.6-1-5.1-2.9-7l-1.2-1.2l2.6-2.6
			c2.2-2.2,5-3.9,8.1-4.8c0.1,0,0.1,0,0.2-0.1l30.4-10.2c10.3-3.5,19.4-9.9,26.1-18.5l15.2-19.3l40.7-40.7c2,0.4,4.3,0.6,6.5,0.7
			v3.3c0,1.3,1.3,2.5,3.1,2.5c1.6,0,3.2-1.2,3.2-2.5v-3.6c11.5-1.6,19.4-8.8,19.4-21.9c0-14.5-10.1-19.2-19.4-22.6v-21.6
			c7.5,0.5,10.2,3.9,12.8,3.9c3.2,0,4.7-4,4.7-6.1c0-5.2-10.2-7.5-17.5-7.7V165c0-1.3-1.6-2.5-3.2-2.5c-1.8,0-3.1,1.2-3.1,2.5v3.1
			c-10.1,1.1-20.2,6.4-20.2,19.8c0,13.6,10.7,17.5,20.2,20.9v8.2c-2.9-3.5-7.7-5.5-13.9-5.8c-14.1-0.8-33.5,7.1-44.3,17.8
			c-6.9,6.9-14.7,14.7-18.9,18.9c-1.3,1.3-3.1,2.1-5,2.1h-0.2c-2.9,0-6.8-3.1-7.9-6.1l0-40.8l13.6-11.2l10.8-1.7
			c-2.1,9.6-2.1,19.5,0,29.2c0.4,1.9,2.1,3.3,4,3.3c0.3,0,0.6,0,0.9-0.1c2.2-0.5,3.7-2.7,3.2-5c-2.3-10.3-1.8-21,1.5-31
			c0,0,0-0.1,0-0.1c0,0,0,0,0,0c2.9-8.9,7.7-16.7,14.4-23.4c1.4-1.4,2.9-2.8,4.5-4c0,0,0.1-0.1,0.1-0.1c0,0,0,0,0,0
			c11.3-9.1,25.5-13.8,40-13.1c14.7,0.7,28.5,6.8,38.8,17.2c11.1,11.1,17.3,26,17.3,41.7s-6.1,30.6-17.3,41.7
			c-14.7,14.7-36.3,20.6-56.5,15.4c-2.2-0.6-4.5,0.8-5.1,3c-0.6,2.2,0.8,4.5,3,5.1c5.5,1.4,11.2,2.1,16.8,2.1
			c5.8,0,11.6-0.7,17.2-2.2c11.5-3,22-9.1,30.4-17.5c12.7-12.7,19.7-29.6,19.7-47.6C401,186.9,394,170,381.3,157.3z M339.4,211.1
			c5.2,2.2,9.4,5.2,9.4,11.9c0,6.1-3.6,9.5-9.4,10.5V211.1z M324.2,186.9c0-5.5,4.3-8.2,10.2-8.9v19.4
			C328.8,195.2,324.2,192.9,324.2,186.9z M305.2,253.9l-3.9-3.9c-0.7-0.7-1.1-1.6-1.1-2.6s0.4-1.9,1.1-2.6l6.8-6.8
			c2.2-2.2,5-3.3,7.9-3.3c2.2,0,4.5,0.7,6.4,2L305.2,253.9z M270.5,181.5l-15.7,2.4c-0.7,0.1-1.4,0.4-2,0.9l-16,13.2
			c-1,0.8-1.5,2-1.5,3.2l0,43.4c0,0.4,0,0.7,0.1,1.1c1.8,6.8,9.3,12.7,16.1,12.7h0.2c4.1,0,8-1.6,10.9-4.5
			c4.3-4.3,12.1-12.1,18.9-18.9c9.1-9.1,26.2-16,38-15.4c2.7,0.1,6.3,0.8,8,2.9c0.1,0.1,0.2,0.2,0.3,0.3c0.9,0.9,3.3,3.3,0.2,7.8
			c-7.6-6.1-18.8-5.6-25.8,1.5l-6.8,6.8c-2.3,2.3-3.5,5.3-3.5,8.5c0,3.2,1.3,6.2,3.5,8.5l3.9,3.9l-18.7,18.7
			c-0.1,0.1-0.2,0.2-0.3,0.4l-15.4,19.5c-5.8,7.3-13.5,12.8-22.3,15.8l-30.3,10.2c-4.3,1.3-8.3,3.6-11.5,6.8l-2.6,2.6l-23.2-23.2
			l-23.2-23.2l18.3-18.3c0.3-0.3,0.5-0.6,0.7-1c6.2-11.8,14.9-41.8,19.6-58.6c1.8-6.5,5.5-12.3,10.7-16.6l40.6-33.6
			c3.5-2.9,8.2-4.3,12.8-3.8c4.1,0.5,19.9,2.3,30.2,3.5C278.3,165.5,273.7,173.1,270.5,181.5z"/>
	</g>
</g>
</svg>
