<svg id="Capa_1" data-name="Capa 1" xmlns="http://www.w3.org/2000/svg" viewBox="0 0 467 467">
  <defs>
    <style>
      .cls-1 {
        fill: #f9e4bb;
      }

      .cls-2 {
        fill: #dbb153;
      }
    </style>
  </defs>
  <title>003-profits</title>
  <circle class="cls-1" cx="233.5" cy="233.5" r="233.5"/>
  <g>
    <path class="cls-2" d="M346.2,159l-3-21.6a4,4,0,0,0-1.6-2.7,4.3,4.3,0,0,0-3.1-.8l-23.8,3.6a4.1,4.1,0,1,0,1.3,8.1l13.9-2.1c-18.6,22.9-38.5,42.5-59.4,58.1-18.2,13.6-37.1,24.4-56.3,31.9-32.6,12.9-54.9,12-55.1,12a4.1,4.1,0,1,0-.4,8.2h1.7c5.9,0,27-.9,56.3-12.4a249.88,249.88,0,0,0,58.4-33c21.7-16.2,42.3-36.4,61.4-60.1l1.6,11.7a4,4,0,0,0,4.1,3.5h.6A3.73,3.73,0,0,0,346.2,159Z" transform="translate(-22.5 -22.5)"/>
    <path class="cls-2" d="M392.5,355.5H359.3a50.54,50.54,0,0,0,7.7-6.3,49.53,49.53,0,0,0-11-78.3V254.3a4.1,4.1,0,1,0-8.2,0v12.9a49.65,49.65,0,0,0-34.4,1V217.7a1,1,0,0,1,1-1h32.5a1,1,0,0,1,1,1V228a4.1,4.1,0,1,0,8.2,0V217.8a9.18,9.18,0,0,0-9.2-9.2H314.4a9.18,9.18,0,0,0-9.2,9.2v54.7a51.56,51.56,0,0,0-8.2,6.6,49.49,49.49,0,0,0,0,70,46.1,46.1,0,0,0,7.7,6.3H278.8V255.1a9.18,9.18,0,0,0-9.2-9.2H237a9.18,9.18,0,0,0-9.2,9.2V355.5H201.3V288.9a9.18,9.18,0,0,0-9.2-9.2H159.6a9.18,9.18,0,0,0-9.2,9.2v66.6H133.5V144.2a7.6,7.6,0,0,0-7.6-7.6h-6.5a7.6,7.6,0,0,0-7.6,7.6v29.2a4.1,4.1,0,1,0,8.2,0V144.9h5.2V356.2a7.6,7.6,0,0,0,7.6,7.6h259V370H120.1V199.3a4.1,4.1,0,1,0-8.2,0V370.5a7.6,7.6,0,0,0,7.6,7.6H392.6a7.6,7.6,0,0,0,7.6-7.6V363A7.73,7.73,0,0,0,392.5,355.5Zm-199.4,0H158.7V288.9a1,1,0,0,1,1-1h32.5a1,1,0,0,1,1,1l-.1,66.6Zm42.9,0V255.1a1,1,0,0,1,1-1h32.5a1,1,0,0,1,1,1V355.5Zm114.1-4.2a41.55,41.55,0,0,1-13.3,3.9h-.2c-.3,0-.6.1-.9.1-.5,0-1,.1-1.4.1h-4.7c-.4,0-.9-.1-1.3-.1s-.7-.1-1.1-.1-.5-.1-.8-.1-.7-.1-1.1-.2h-.1a40.93,40.93,0,0,1-13.8-5h-.1a44.55,44.55,0,0,1-8.5-6.5,41.28,41.28,0,0,1,9.9-65.7c.1-.1.2-.1.3-.2a41.31,41.31,0,0,1,34.4-1.6c.1,0,.2.1.3.1a10.09,10.09,0,0,1,1.5.7l.6.3a42.43,42.43,0,0,1,11.4,8.1,41.34,41.34,0,0,1,0,58.4,39.61,39.61,0,0,1-10.9,7.8Z" transform="translate(-22.5 -22.5)"/>
    <path class="cls-2" d="M333.9,310.2V295.6c5,.4,6.9,2.7,8.7,2.7,2.2,0,3.2-2.7,3.2-4.1,0-3.5-6.9-5-11.8-5.2v-2c0-.9-1.1-1.7-2.2-1.7a1.93,1.93,0,0,0-2.1,1.7v2.1c-6.8.7-13.7,4.3-13.7,13.4s7.2,11.8,13.7,14.1v16.9c-7.4-.6-9.3-5.6-11.7-5.6-1.8,0-3.3,2.4-3.3,4.1,0,3.5,6.1,8.4,15,8.5h0v2.2a1.93,1.93,0,0,0,2.1,1.7c1.1,0,2.2-.8,2.2-1.7v-2.5c7.8-1.1,13.1-6,13.1-14.9C347,315.7,340.2,312.5,333.9,310.2Zm-3.8-1.4c-3.8-1.4-6.9-3-6.9-7.1,0-3.7,2.9-5.6,6.9-6.1Zm3.4,24.6V318.2c3.5,1.5,6.3,3.5,6.3,8.1C339.8,330.4,337.4,332.7,333.5,333.4Z" transform="translate(-22.5 -22.5)"/>
  </g>
</svg>
