<svg id="Capa_1" data-name="Capa 1" xmlns="http://www.w3.org/2000/svg" viewBox="0 0 456.04 456.04">
  <defs>
    <style>
      .cls-1 {
        fill: #b4d9ed;
      }

      .cls-2 {
        fill: #4075a0;
      }
    </style>
  </defs>
  <title>004-wallet</title>
  <circle class="cls-1" cx="228.02" cy="228.02" r="228.02"/>
  <path class="cls-2" d="M366.34,276.91h-3.65V244a15.44,15.44,0,0,0-6.55-12.62v-4.48a11.79,11.79,0,0,0-11.78-11.78h-2.73l10.43-15.3a11.27,11.27,0,0,0-3-15.64L278.34,136a11.26,11.26,0,0,0-15.64,3l-61.08,89.63h-17l4.1-41.51a1.23,1.23,0,0,1,.77-1,26.43,26.43,0,0,0,12.89-10.47,1.22,1.22,0,0,1,1.15-.54l26.66,2.63a3.48,3.48,0,1,0,.68-6.92l-26.66-2.63a8.14,8.14,0,0,0-7.7,3.73,19.43,19.43,0,0,1-9.48,7.7,8.12,8.12,0,0,0-5.24,6.85l-4.17,42.2H173.2l6.49-65.66a4.31,4.31,0,0,1,4.71-3.86l53.87,5.32a3.48,3.48,0,1,0,.68-6.92l-53.87-5.32a11.27,11.27,0,0,0-12.31,10.1l-5.23,52.92h-8.9a11.79,11.79,0,0,0-11.78,11.78V230a15.47,15.47,0,0,0-9,14V362.52A15.47,15.47,0,0,0,153.3,378H347.24a15.47,15.47,0,0,0,15.45-15.45V329.64h3.65a7.82,7.82,0,0,0,7.81-7.81v-37.1A7.82,7.82,0,0,0,366.34,276.91Zm-22-54.8h0a4.83,4.83,0,0,1,4.83,4.83v1.77a15.49,15.49,0,0,0-1.95-.13H332.49l4.41-6.47Zm-75.92-79.25a4.28,4.28,0,0,1,2.76-1.81A4.37,4.37,0,0,1,272,141a4.28,4.28,0,0,1,2.42.75L345.19,190a4.31,4.31,0,0,1,1.13,6l-22.24,32.64h-5.34l10.91-16A8.13,8.13,0,0,0,330,204a19.43,19.43,0,0,1-2.33-12,8.13,8.13,0,0,0-3.52-7.8l-36.69-25a8.13,8.13,0,0,0-8.55-.42,19.43,19.43,0,0,1-12,2.22,8.23,8.23,0,0,0-7.88,3.51l-43.69,64.11H210Zm1.53,59a28.68,28.68,0,0,0-28.58,26.69H223.78l41-60.2h0a1.24,1.24,0,0,1,1-.55H266a26.43,26.43,0,0,0,16.33-3,1.23,1.23,0,0,1,1.27.08l36.69,25a1.23,1.23,0,0,1,.54,1.16A26.42,26.42,0,0,0,324,207.38a1.23,1.23,0,0,1-.07,1.29l-13.57,19.92H298.55A28.68,28.68,0,0,0,270,201.89Zm21.61,26.69H248.36a21.69,21.69,0,0,1,43.21,0Zm-137.77-1.64a4.83,4.83,0,0,1,4.83-4.83h8.22l-.64,6.47h-12.4Zm-9,17.09a8.51,8.51,0,0,1,8.5-8.5H347.24a8.51,8.51,0,0,1,8.5,8.5v9.65H144.8ZM355.74,362.52a8.51,8.51,0,0,1-8.5,8.5H153.3a8.51,8.51,0,0,1-8.5-8.5v-9.65h18.74a3.48,3.48,0,0,0,0-7H144.8v-85.3H355.74v16.28h-33A26.39,26.39,0,0,0,299,291.77l0,.09-.1.23a26.21,26.21,0,0,0-1.31,3.36h0a26.37,26.37,0,0,0,25.18,34.18h33v16.28H185.8a3.48,3.48,0,0,0,0,7H355.74Zm11.47-40.7a.86.86,0,0,1-.86.86H322.69a19.43,19.43,0,0,1-17.07-10.17q-.22-.41-.43-.84-.41-.85-.74-1.74a19.43,19.43,0,0,1,0-13.33q.33-.89.74-1.74.21-.42.43-.84a19.43,19.43,0,0,1,17.07-10.17h43.65a.86.86,0,0,1,.86.86v37.1Z" transform="translate(-27.98 -27.98)"/>
</svg>
