<svg id="Layer_1" data-name="Layer 1" xmlns="http://www.w3.org/2000/svg" viewBox="0 0 946.6 193.45">
  <defs>
    <style>
      .cls-1 {
        fill: #3b5897;
      }
    </style>
  </defs>
  <title>facebook</title>
  <g>
    <path class="cls-1" d="M543.15,451.11c0,1.16,0,2.31,0,3.45q-.12,26.92-.24,53.83c0,4.7.34,4.93,4.83,3.66a95.51,95.51,0,0,1,42-2.22c17.43,2.89,27.18,12.5,28.47,30.15,1.18,16.09.88,32.31.76,48.47a92.92,92.92,0,0,1-2.21,20c-3.4,14.78-13.51,23.37-27.62,27.71s-28.81,4.74-43.38,3.83c-12.86-.81-25.63-2.93-38.46-4.34-2.08-.23-2.7-1.07-2.54-3,.08-.87,0-1.75,0-2.63q0-80.61,0-161.23c0-3.12,0-6.24-.13-9.36,0-1.6.45-2.54,2.18-2.82,11.73-1.9,23.45-3.86,35.18-5.79A5.29,5.29,0,0,1,543.15,451.11Zm.15,125.64c0,9.36,0,18.71,0,28.07,0,2.44.72,3.55,3.34,3.49,5.55-.14,11.13.32,16.64-.12,10-.79,16.69-5.15,17.13-16.14.49-12.26.34-24.56.12-36.83-.16-9.1-6.06-14.31-15.2-14.58-6.4-.19-12.25,1.48-18.14,3.69-3.18,1.19-4,3-3.93,6.11C543.41,559.2,543.3,568,543.3,576.75Z" transform="translate(-57.95 -447.07)"/>
    <path class="cls-1" d="M925.74,450.84V566.08l.92.43a15.64,15.64,0,0,0,2.4-2.4c4.8-7.46,9.51-15,14.26-22.46,6.16-9.71,12.36-19.4,18.48-29.14a4.28,4.28,0,0,1,4-2.39c12.49,0,25,0,37.47,0a6.46,6.46,0,0,1,1.31.42c-1.55,2.55-3,5-4.5,7.39-10.84,17.12-21.65,34.27-32.61,51.32-1.53,2.39-1.65,4.22-.18,6.61,7.07,11.55,14,23.18,21,34.79q7.45,12.41,14.83,24.86a22.22,22.22,0,0,1,1.13,2.79c-1.46.11-2.56.25-3.67.26-11.22,0-22.44-.07-33.66.07a5.48,5.48,0,0,1-5.41-3q-15.5-26-31.18-51.84a33.31,33.31,0,0,0-3.64-4.25,32.62,32.62,0,0,0-.91,5.38c-.07,16.59,0,33.18,0,49.76,0,3.88,0,3.89-3.91,3.9H892.23c-5,0-5,0-5-5q0-49.47,0-98.94,0-36.74,0-73.47c0-4.2.11-4.18,4.36-4.87,10.68-1.72,21.34-3.55,32-5.33C924.1,450.93,924.66,450.92,925.74,450.84Z" transform="translate(-57.95 -447.07)"/>
    <path class="cls-1" d="M486.23,604.49c.07.78.2,1.54.2,2.3,0,8.59,0,17.17,0,25.76,0,1.58-.13,2.73-2.13,3.14-22.21,4.58-44.58,6.82-67,2.55-14.23-2.71-25.67-10-32.59-23.32a56.23,56.23,0,0,1-6.14-25.64c-.14-13.06-.1-26.15.57-39.19,1-19.55,13.89-34.57,33-39a94,94,0,0,1,44.9.21c17.69,4.45,29.66,17.06,31.61,35.19,1.3,12.17.88,24.52,1.08,36.79,0,.69-1.2,1.59-2,2-.61.33-1.53.07-2.31.07H421.51c-4.68,0-5,.23-4.77,5a34,34,0,0,0,.85,6.36c1.53,6.55,5.83,10.55,12.8,10.8,10.1.37,20.24.51,30.32,0C469.12,607.09,477.46,605.57,486.23,604.49Zm-52.37-44.71V560c3.41,0,6.81.08,10.22,0,7.54-.22,7.76,1.38,7.16-8.1-.49-7.74-4.3-12.67-10.75-13.77a40.54,40.54,0,0,0-12.1-.13c-4.8.65-8.67,3.51-10,8.29-1,3.57-1,7.44-1.34,11.19-.14,1.64.83,2.41,2.55,2.39C424.33,559.75,429.09,559.78,433.86,559.78Z" transform="translate(-57.95 -447.07)"/>
    <path class="cls-1" d="M631.74,574.87c.51-9.11.44-17.64,1.56-26,2.78-20.74,15-33.35,35.17-37.94,15.85-3.61,31.79-3.5,47.41,1.44,17.22,5.44,27.22,17.67,29.74,35.19s2.09,35,.18,52.48a42.19,42.19,0,0,1-11.35,24.83c-7.4,7.84-16.86,11.78-27.25,13.49a105,105,0,0,1-18,1.65c-10.52-.1-21-1.27-30.76-5.62-14.63-6.51-22.68-18.16-25-33.6C632.21,592,632.26,583.11,631.74,574.87Zm76.32-.21H708c0-6.53.17-13.07-.05-19.6-.2-5.85-3.19-10.07-8.52-12.59-4.22-2-8.71-2-13.18-1.72-9.19.62-15.3,6.88-15.41,15.92q-.21,17.7,0,35.4c.09,7.32,3.83,12.62,10.31,14.73a26.59,26.59,0,0,0,14.66.57c8-1.94,12.06-6.9,12.27-15.16C708.18,586.36,708.06,580.51,708.06,574.65Z" transform="translate(-57.95 -447.07)"/>
    <path class="cls-1" d="M759.4,573.56c.47-8.36.2-17.53,1.66-26.41,3.2-19.52,15-31.67,34.28-36.06,17.64-4,35.28-4,52.32,2.91,14,5.65,22.1,16.53,25,31.16a87.45,87.45,0,0,1,1.47,16c.14,11.6.34,23.24-.35,34.8s-4.7,22.29-13.5,30.5c-6.81,6.36-15,10-24.13,11.67-15.22,2.88-30.35,2.83-45.22-1.95-17.65-5.67-27.54-18.17-30.1-36.21C759.65,591.48,759.86,582.83,759.4,573.56Zm76.28.87h.25c0-5.66.14-11.32,0-17-.22-6.94-2.84-12.52-9.72-15.27a25.56,25.56,0,0,0-14.66-1c-7.67,1.5-12.78,6.13-13,14-.38,13.53-.24,27.1.36,40.62.23,5.26,4.1,8.88,9.18,10.76a27.09,27.09,0,0,0,14.64,1c7.86-1.47,12.36-6.3,12.9-14.37C836,586.93,835.68,580.67,835.68,574.43Z" transform="translate(-57.95 -447.07)"/>
    <path class="cls-1" d="M157.63,542.45c.95-10.1,1.86-19.77,2.76-29.44.17-1.79.85-2.7,2.93-2.69,15,.1,30.06-.21,45.07.21a67.26,67.26,0,0,1,23.33,4.55c11.43,4.59,17.4,13.52,19.21,25.17a167.8,167.8,0,0,1,1.77,24.07c.22,23.51.08,47,.08,70.54v3.89H220.45c-.29-1.72-.61-3.41-.87-5.12-.34-2.23-1.25-3.14-3.54-1.91a66.8,66.8,0,0,1-21.94,7.45c-11.73,1.71-23.46,2.38-34.15-4.33-9.35-5.87-13.58-14.87-15.31-25.39a49.63,49.63,0,0,1,.76-19.38c2.95-12.74,11.63-19.54,24-22.12a59.76,59.76,0,0,1,10.35-1.2c10.51-.32,21-.48,31.54-.59,1.94,0,2.62-.7,2.51-2.56-.23-3.68-.31-7.37-.59-11A9,9,0,0,0,206,544a39.4,39.4,0,0,0-9.43-1.5c-11.8-.17-23.61-.07-35.42-.07Zm44.47,49.74,0-.26c-4.16.27-8.35.37-12.49.87a7,7,0,0,0-6.33,5.58c-2.06,8,2.7,14.35,10.87,14.53,6.52.15,12.37-2.18,18-5a3.79,3.79,0,0,0,1.53-2.79c.18-3.4,0-6.82.06-10.22,0-2.06-1-2.74-2.89-2.7C207.95,592.22,205,592.18,202.1,592.18Z" transform="translate(-57.95 -447.07)"/>
    <path class="cls-1" d="M146.25,510.38c-.68,6.78-1.31,13.06-1.95,19.34-.3,2.9-.8,5.8-.89,8.7s-1,4-4,3.89c-6.43-.21-12.88-.07-19.32-.06-3.67,0-3.75.09-3.75,3.79q0,44.05.11,88.11c0,4.45,0,4.45-4.45,4.45H81.86c-3.89,0-3.9,0-3.9-3.81q0-43.91,0-87.81c0-4.6,0-4.61-4.48-4.61-4.29,0-8.59-.06-12.88,0-1.86,0-2.65-.66-2.64-2.55q.07-13.61,0-27.22c0-1.83.86-2.36,2.51-2.35,4.68,0,9.37-.08,14,.07,2.56.08,3.48-.92,3.46-3.41-.08-7.22-.2-14.45,0-21.66.27-8.48,1.93-16.69,6.89-23.81a30.24,30.24,0,0,1,22.36-13c10.63-1.1,21.38-1.08,32.09-1.37,6.88-.18,6.89,0,6.89,6.94,0,7.22-.09,14.44,0,21.66.05,2.61-.67,3.6-3.43,3.56-5.45-.09-10.91.08-16.36.36-6.53.34-9.81,3.71-10,10.17-.15,5.75,0,11.51-.18,17.27-.07,2.59,1,3.39,3.47,3.35,7.61-.11,15.22,0,22.83,0Z" transform="translate(-57.95 -447.07)"/>
    <path class="cls-1" d="M364.82,544.29l-15-2.31c-10-1.53-20.14-2.37-30.26-.95-9.12,1.29-13.44,5.19-13.81,14.5-.52,13-.32,26.13.28,39.17.35,7.69,5.11,11.83,12.73,12.89,10.22,1.42,20.4.68,30.54-.83,5.16-.77,10.31-1.67,15.55-2.53a4.89,4.89,0,0,1,.36,1.19c0,9.36.1,18.73,0,28.09a2.9,2.9,0,0,1-1.7,2.16c-19.75,4.27-39.63,7.1-59.65,2.08s-32.15-17.8-35.4-38.11c-1.22-7.64-1.19-15.53-1.2-23.3,0-8.85-.28-17.84,1.1-26.53,3.51-22,16.68-35,38.59-39.46,14.85-3,29.69-2,44.49.43,3.85.63,7.7,1.31,11.48,2.25a3.47,3.47,0,0,1,2.22,2.36c.15,9.17.09,18.34.06,27.51A6.61,6.61,0,0,1,364.82,544.29Z" transform="translate(-57.95 -447.07)"/>
  </g>
</svg>
