<svg xmlns="http://www.w3.org/2000/svg" viewBox="0 0 912.12 574.01"><defs><style>.cls-1{fill:#a7c2d3;}.cls-2{fill:#2b4d77;}</style></defs><title>Asset 10</title><g id="Layer_2" data-name="Layer 2"><g id="Layer_2-2" data-name="Layer 2"><path class="cls-1" d="M497.51,308c2.36-2.89,5.38-5.76,9.11-5.86l-11.18,19.4a9.31,9.31,0,0,1-3.09,3.68c-1.1.63-3.61.84-4.25-.64-.55-1.28,1.56-4.35,2.16-5.5A63.09,63.09,0,0,1,497.51,308Z"/><path class="cls-1" d="M335.11,339.4c-.5,3.08-1,6.22-.52,9.29s-.45,8.33,2.47,9.43c3.82,1.45,8.24-1,10.4-4.43s.37-9.92.68-14c.82-11-5.89-22.05-6.11-33.09L338.18,205.5c-.07-1.82-7.09,10.43-8,12.14-1.8,3.49-.18,6.53.47,10.13,2.27,12.51-1.85,20-1.68,32.64C329.36,286.84,339.39,313.31,335.11,339.4Z"/><path class="cls-1" d="M168.32,334.9c7.68,2.61,5.76,3.82,13.78,5l82,12.18L264,355l-30.81,1.87c-27.62-3.35-55.11-3.35-76.39-4.91-10.91-4.4-14.75-13.71-25.75-20.94-10.28-6.76-8.23-18.4,4.74-12.2C146.72,324.08,156.81,331,168.32,334.9Z"/><path class="cls-1" d="M408.22,310.26c16.45,37.29,30.16,77.43,26.38,118,3.38,3.38,13.26,3.86,15.94-.1s-.85-11.43-.81-16.21l.25-35.63c.08-11.5,3.28-21.74.14-32.8-2.76-9.73-11-20-16.13-28.78L402.18,260c-2.89-5-5.86-10.21-6.07-16s3.39-12.08,9.1-12.84A50.65,50.65,0,0,1,385,226.7c-.92-11.67-3-25.2-8.45-35.6-7,2.43-3.86,38.28,1.16,50.81C387,265.08,398.15,287.43,408.22,310.26Z"/><path class="cls-1" d="M437.73,271.58c4-7.63,7.38-15.75,8.61-24.3s.24-17.59-3.95-25.14c-3.41-6.15-8.72-11-13.93-15.74s-10.59-10.88-16.57-14.79c-2.52,3,2.38,16.08,3.35,20q2.62,10.45,6,20.69t7.57,20.17C429.94,255,438.68,269.68,437.73,271.58Z"/><path class="cls-1" d="M465.42,254.19c-1.11,3.9,1.08,5.73,1.45,9.76s2.57,8.17,6.35,9.64c4.15-6.83,5.78-14.86,7.34-22.7l13.26-66.7c-1,4.57-11.34,11.48-13.51,15.75-2.29,4.5-2.39,12.35-3.77,17.18C472.76,230.33,469.19,241,465.42,254.19Z"/><path class="cls-1" d="M516.61,428c-.1,3.54,12.86-1.69,14.7,1.34s8.32,1.72,11-.57c.53-68.49,25.06-117.74,22.6-211.48-.15-5.66,6.5-16.83-1.65-17.76s-11.95,34.09-11.78,39.64c.67,21.91,1.1,17.43,1.55,39.35C553.95,322.35,517.8,384.19,516.61,428Z"/><path class="cls-1" d="M603,381.91c20.15,8.32,42.78-2.07,61.7-12.9a902,902,0,0,0,103.8-69.4l6.72,26.24c-39.73,29.88-86.56,48.54-132.77,66.85-16.13,6.39-34.35,12.8-50.3,6-11.71-5-19.7-16.55-23.06-28.83-1.86-6.79-6.56-31,1.29-34.16C578.22,353.54,582.78,373.58,603,381.91Z"/><path class="cls-1" d="M487.2,337.94c1.67,1.46,4.12,1.47,6.33,1.4l38.42-1.23c3.4-.11,7.58-.75,8.71-4,.9-2.56-.91-5.44-3.33-6.68s-5.26-1.24-8-1.23l-32.57.23c-3.26,0-7.89-.93-10.16,2C484.84,330.77,484.95,336.06,487.2,337.94Z"/><path class="cls-1" d="M459.37,393.2a11.49,11.49,0,0,0,2.09,8.07c2.4,3,7.23,4,10.34,1.72a5.34,5.34,0,0,0,2.11-3.12c.41-2-.57-4-1.6-5.68a51.33,51.33,0,0,0-7.37-10c.14,2.41-1.43,1.86-2.64,3.18C460.59,389.26,459.59,390.49,459.37,393.2Z"/><path class="cls-1" d="M450.27,186.57c-2.37.45-4.8-.62-6.69-2.12s-3.41-3.42-5.18-5.05c-5.87-5.4-14.4-7.56-19.49-13.71a15.06,15.06,0,0,1-2.69-4.71c-1.78-5.22-.07-10.91,1.64-16.15,4.48.48,7.44,4.68,10.81,7.67,4.21,3.74,9.67,5.87,15.21,6.91a64.09,64.09,0,0,0,8.81,1c1.78.09,7.08,1,8.26-.27-.14,2-1.67,4.48-2.44,6.37l-2.79,6.83L453,179.94C452.65,180.74,450.92,186.44,450.27,186.57Z"/><path class="cls-1" d="M435.67,120.21a24.22,24.22,0,0,0,8.08-3.91c-2.07,1.66-1.77,4.76-1.73,7.41.58-3.22,5.61-6.83,5.28-12.88-.26-4.8-1-9.85,1.16-14.13.48-.94,2.69-2.78,5-1.58,3.33,6.56,1.76,12.63,3.55,18.81.31,1.08,5.19,2.65,6.88,3.18a28.1,28.1,0,0,0,11,.8c-.49-1.34-12.06-5.34-12.55-6.68l-5.22-14.16a4.06,4.06,0,0,0-.9-1.62,1.39,1.39,0,0,0-1.71-.23l-1.39-2.72L447,94.62c-3.28,5.09-2.53,12.33-6.76,16.66-2.54,2.61-6.33,3.52-9.93,4a67,67,0,0,1-20.61-.33c-.49-.09.5,2.4.71,2.61.63.66.13,3.15,1,3.39a35.73,35.73,0,0,0,7.82,1.19A52.85,52.85,0,0,0,435.67,120.21Z"/><path class="cls-1" d="M405.46,77.58c1.86-1.59,4.29-2.3,6.64-3s4.78-1.37,6.66-2.92c2.62-2.17,3.85-5.74,6.63-7.71,2.42-1.72,5.58-1.9,8.54-2,5.54-.24,11.14-.47,16.57.65,3,.61,5.92,1.62,8.93,1.29a13,13,0,0,0,8-4.52,28.39,28.39,0,0,0,4.71-8.13,1.54,1.54,0,0,0-1-2.56c-7.3-2.37-14.65-4.68-22.25-5.8s-15.48-1-22.77,1.38a37.57,37.57,0,0,0-25.82,34.61,7.11,7.11,0,0,0,.41,3.07c1.16,2.66,1.87,1.06,2.35-.34A8.09,8.09,0,0,1,405.46,77.58Z"/><path class="cls-2" d="M513.67,242.09l-8.57-10.17,12.34,2.14a3,3,0,0,0,3.46-2.43l6.74-37.56,34.81,9.18s-1.94,28.24.91,30c1.6,1,.93-17.3,6.45-13.51,2.37,7,3,5.39,10.73,22.85,12.55,28.22,42.21,73.62,47.82,90.56.82,2.49-3.57,13.34-3.22,14.41l-6.68,19.18a3,3,0,0,0,1.63,3.92,2.87,2.87,0,0,0,1.14.23A3,3,0,0,0,624,369l11.65-21.14,4.95-9.36,120.94-65.28,1.77,8.77a3,3,0,0,0,0,.95l5.84,29a3,3,0,0,0,.35.89l2.63,13c-16.43,9.47-115.6,67.2-153.25,72.42-36.46,5-46-29.55-47-33.12l-5-77.83a3,3,0,0,0-6,0s-10.43,67.7-14.74,89.31c-2.74,13.71-8.5,51.37-8.5,51.37,0,1.65,1.59,2.17,3.25,2.17a3,3,0,0,0,3-3l14.65-73.64,6.69,13.36c1.26,1.9,4.73,14.37,11.19,22.68,6.62,8.52,20.73,17.77,43.35,14.64,41.4-5.73,151.73-71,157.3-74.25a3,3,0,0,0,1.43-3.19l-3-14.68,8.84-9.38,50.81-15.51,47.59-1.85a3.08,3.08,0,0,0,1.66-.58c3.68-2.7,8.42-6.83,7.21-11.53s-7.37-5.72-8.59-5.88l-.39,0H787.08c-9.76,0-15.68,3.56-19.16,7.1l-1.25-6.18a3,3,0,0,0-4.23-2.11L635.13,334.47c-4.4-13.38-35.54-63.83-49.1-94.36-16.14-36.31-21.29-42.47-22.06-42.66l-37.89-10-27.71-8.4a3.05,3.05,0,0,0-2.33.25l-.32.23-5.78-16a3.43,3.43,0,0,0,.06-.91l-1.56-17.28c-.07-.77-.37-1.53-.47-2.54a13.3,13.3,0,0,0,2.62-4.74l3.88-15.26,2.73-10.93a12.94,12.94,0,0,0,2.28-4.49c1.11-4.35,2.07-8.74,3.2-13.09a6.46,6.46,0,0,1,1.58-3.24A4.27,4.27,0,0,0,506,87a5.41,5.41,0,0,1,0-.77c4.13-2.71,7.26-8.24,5.33-13.07-2.68-6.7-1-14.74-1-14.74s6.7-6.7,2.68-14.74-1.34-9.38-6.7-16.08-4.38-12.06-16.45-9.38c0,0,6.07,12.07-9.13,32.7,0,0-.25,6.17,9.13,6.17,8.52,0,13.73,8.85,13.6,25.54a21.15,21.15,0,0,0-4.25-.56c-11-.11-22-.19-33-.18a23.38,23.38,0,0,0-10.8,2.45,9.57,9.57,0,0,1-8.81-.21A18.55,18.55,0,0,0,438.22,82c-5.72-.07-11.45,0-17.17,0v0c-5.64,0-11.28,0-16.91,0,0-.29-.07-.57-.12-.84-1.34-8,0-12.06,5.36-12.06s10.72-10.72,10.72-10.72,8-4,10.72-4,17.42,2.68,25.47,0c0,0,0,9.38,20.11-1.34,0,0,17.42-17.42,12.06-34.85S467,4.77,467,4.77s-9.38-10.72-22.79,0c0,0-5.36,5.36-7.37,2,0,0-12.06,2.68-12.06,0s-21.45,8-21.45,8l-9.06,12.06S387.22,37.6,387.22,43s-.32,10.72-.32,14.74-3.17,7.37,1.7,18.77c0,0,1.34,1.34,1.34,6.7s4,9.38,6.7,12.06a34.6,34.6,0,0,1,4.88,7.12,31.9,31.9,0,0,0,2.32,7l2.6,13.43,2.68,12.5a58.87,58.87,0,0,0,4.54,6.52s-.19,2.61-.28,3.54l-1.56,17.28a2.76,2.76,0,0,0,.06.91L406.29,179l-.18,0-27.7,8.4-37.86,10c-.81.2-8,5.36-24.09,41.67-13.57,30.53-42.71,82-47.1,95.36L136,266.15a3,3,0,0,0-4.23,2.11l-1.28,6.33c-3.46-3.59-9.41-7.25-19.3-7.25H15.67l-.39,0c-1.23.16-7.39,1.2-8.6,5.88s3.54,8.83,7.21,11.53a3.11,3.11,0,0,0,1.66.58l47.59,1.85L114,302.71l9,9.54L120,326.77a3,3,0,0,0,1.43,3.19c.17.1,7.52,10.19,31.32,23.23a3,3,0,1,0,2.88-5.26c-19.24-10.54-24.25-19.15-29.32-22.08l2.81-13.94,5.84-29,2-9.72,131.89,67.64L273.48,352a3,3,0,0,0,2.77,1.84,3.1,3.1,0,0,0,1.15-.23,3,3,0,0,0,1.62-3.93l-4.68-11.17c2.73-8.35,33.21-64.61,47.6-97,7.76-17.46,8.3-15.79,12.73-24.85,1.16-2.38,3.3,23.17,4.82,22.22,3.08-1.92,1.51-35.66,1.55-35.67l35.8-9.18,6.74,37.56a3,3,0,0,0,3.46,2.43l12.34-2.14-8.57,10.17a3,3,0,0,0-.3,3.44L449.56,347l-1.35,5a3,3,0,0,0-.67,1.87v71.29a3,3,0,1,0,6,0V355.65L514,245.46A3,3,0,0,0,513.67,242.09Zm368.75,31.25c1.42.22,3.15.94,3.39,1.36,0,0-.07,1.49-4.22,4.69l-47.05,1.83a2.88,2.88,0,0,0-.76.13l-51.94,15.86a3,3,0,0,0-1.1.64l-4.69-22a22.86,22.86,0,0,1,11-2.49Zm-817.9,8a2.75,2.75,0,0,0-.76-.13l-47-1.83c-4.09-3.16-4.22-4.63-4.23-4.63a2.7,2.7,0,0,1,1.19-.79,10.44,10.44,0,0,1,2.21-.63h95.34a24,24,0,0,1,9.65,1.82l-4.68,22Zm426.86-96.16-27.49,28.32c-1.88-5.9-5.35-15.77-9.37-22.54,9.38-8.6,23.58-19.89,30.42-23.59ZM419.18,148c2.41,2.43,5.47,5.55,9.74,9.92,5.07,4.7,10.65,5.46,21.85,5,11.19.43,16.9-1.58,22-6.28,4.63-3.18,7.44-6.52,9.89-8.9l1.21,13.42c-5.87,3.51-21.48,14.87-32.93,24.68-13.09-9.84-27.2-21.72-32.92-24.68Zm15-5.15,0-4.73c4.4-4.61,27.47-4.61,33.52.12l0,4.73c0,7.48-7.55,9.49-16.81,9.46h0C441.68,152.38,434.2,150.31,434.23,142.83Zm8.6,89.49-6.19,36.6-21.39-70.18L437.88,220Zm19-.4,3.31-11.11,25.93-26.7L470.64,269.4ZM500.63,85.11a1.63,1.63,0,1,1-1.54,1.67A1.61,1.61,0,0,1,500.63,85.11Zm-35.56.28a48.44,48.44,0,0,1,5.74-.28c2.65,0,5.3,0,8,0v.09c3.94,0,7.89-.09,11.83,0A11.49,11.49,0,0,1,495,86.29a6.65,6.65,0,0,1,4.07,5.83,19.9,19.9,0,0,1-1,7c-.75,2.47-1.27,5-1.94,7.51a12,12,0,0,1-2.82,4.65,8.78,8.78,0,0,1-5.46,2.66,49.31,49.31,0,0,1-17.08,0c-3.62-.65-7-2-8.75-5.65-1.23-2.56-2.19-5.25-3.16-7.93a19,19,0,0,1-1.32-6.18A8.48,8.48,0,0,1,465.07,85.39ZM407.44,109c-1.92-3.35-2.45-7-3.23-10.69-.22-1-.5-2-.69-3.07.27-1.83.51-3.81.66-5.8a7.17,7.17,0,0,1,5.14-3.77,33,33,0,0,1,5.5-.53c3.1-.08,6.21,0,9.32,0v.1c3.94,0,7.89-.09,11.83,0a9.08,9.08,0,0,1,7.79,4.22c1.26,2,1.27,4.26,1,6.52-.57,4.46-2.36,8.53-4.25,12.48-1.47,3.07-4.45,4.64-7.69,5.32a48.35,48.35,0,0,1-18.3.15A9.53,9.53,0,0,1,407.44,109ZM419,117.75c5.81.2,11.66.67,17.25-1.67,4-1.68,7.09-4.31,8.44-8.65,1.1-3.54,2.06-7.13,3.1-10.69.41-1.4.82-1.72,2.23-1.77.91,0,1.82,0,2.72,0a2.17,2.17,0,0,1,2.2,1.74c.24.82.38,1.66.63,2.48,1,3.24,1.8,6.54,3,9.69,1.83,4.81,5.94,6.94,10.49,8.08,6.4,1.61,12.89,1.13,19.34.22l.69-.12c-.91,4.6-3.25,14-7.28,15.05-5.36,1.34-6.7-4-30.77-2.7-24.07-1.32-25.41,4-30.77,2.7-4.06-1-6.57-10.64-7.55-15.25A26.64,26.64,0,0,0,419,117.75Zm-2.06,49.63c6.1,4,19.54,14.74,30.42,23.59-4,6.77-7.49,16.64-9.37,22.54l-26.52-27.32-.61-2Zm-20.13,77,12.52-14.85a3,3,0,0,0-2.81-4.89l-17.51,3-6.31-35.2L404,186a3,3,0,0,0,.84,2l1.27,1.31,28.29,92.83,0,.24a3,3,0,0,0,.94,2.72l16.29,53.45Zm63.28,87L499.58,185.7l22.26,6.74-6.32,35.2-17.51-3a3,3,0,0,0-2.81,4.89l12.56,14.89Z"/><path class="cls-2" d="M540.84,326.15a3,3,0,0,0-3-3H487.45a3,3,0,0,0,0,6h50.39A3,3,0,0,0,540.84,326.15Z"/><path class="cls-2" d="M472.22,382.89a9.86,9.86,0,1,0,9.86,9.86A9.87,9.87,0,0,0,472.22,382.89Z"/><path class="cls-2" d="M348.62,355.56a3,3,0,0,0,3-3l-8-65.24a3,3,0,0,0-6,0l8,65.24A3,3,0,0,0,348.62,355.56Z"/><path class="cls-2" d="M48,457.09H.86v14.64l9.81.52v80.07q0,4.31-5,4.82L0,557.65V571.6H48.9q22,0,36.85-13.78,7.4-6.89,11.71-19t4.31-28.5q0-26.35-14.21-39.78T48,457.09Zm24.28,87.3q-8.27,10.68-23.07,10.68H31.68V473.79H47q33.58,0,33.58,39.6Q80.59,533.72,72.32,544.39Z"/><path class="cls-2" d="M196.13,556.18q-.86-.94-.86-3.7V485H165V499.1l5.51.34a4.69,4.69,0,0,1,3.36,1.29,6.1,6.1,0,0,1,.95,3.88v36.33A16.57,16.57,0,0,1,169.87,553q-4.91,5-13,5t-10.68-4.65q-2.58-4.65-2.58-13.78V485H113.31V499.1l5.51.34q4.3.17,4.3,4.82V544q0,29.79,26.69,29.79,18.42,0,27.9-13.43V571.6h27.9V558l-6-.52A5.72,5.72,0,0,1,196.13,556.18Z"/><path class="cls-2" d="M252.52,558.34q-5.77,0-8.52-3t-2.76-10.59V499.45h21.18L264.15,485h-22.9V466.73H230.05q-3.45,9.3-7.58,14.38t-12.23,5.77l-1.72,12.57h12.23v46q0,5.17.17,7.83a35.45,35.45,0,0,0,1.55,7.32,15.41,15.41,0,0,0,4,7.06,23.74,23.74,0,0,0,7.92,4.39,37.87,37.87,0,0,0,13.09,2q13.26,0,21.87-6l-5.17-13.26A22,22,0,0,1,252.52,558.34Z"/><path class="cls-2" d="M318.13,558.17q-10.42,0-15.93-8.09t-5.51-22.73q0-29.44,20.84-29.45a21.93,21.93,0,0,1,7,1.12q3.36,1.12,3.36,5.77V513l15.84-1.21V489.46a58.74,58.74,0,0,0-28.33-7.06q-15.24,0-27.38,11.45T275.86,528q0,22.73,10.59,34.35t29,11.62q18.42,0,30.65-10l-7.4-13.26Q328.55,558.17,318.13,558.17Z"/><path class="cls-2" d="M440.3,512.36q0-15-7.15-22.47t-20.23-7.49q-16.19,0-25.14,12.74V448.82H357.13v14.29l6,.34a4.94,4.94,0,0,1,3.36,1.21q.94,1,.95,3.79v83.86q0,3.1-1.21,4.22a6.8,6.8,0,0,1-3.79,1.46l-5.68.52V571.6h41V557.82L388,557.3V515.63a17.07,17.07,0,0,1,4.91-12.31q4.91-5.08,13.09-5.08t11,4.82q2.84,4.82,2.84,13.78v35.47q0,3.1-1.21,4.22a6.8,6.8,0,0,1-3.79,1.46l-5.68.52V571.6h41V557.82l-9.82-.52Z"/><path class="cls-2" d="M558.6,471.72l10,.52v63q0,10.33-5.94,15.67t-16.7,5.34q-10.76,0-16.53-4.91t-5.77-17V477.23q0-3.1,1.21-4.22a7.08,7.08,0,0,1,4-1.46l5.68-.52V457.09H492.82v14.64l10,.52v63.2q0,20,10.59,29.19t31.25,9.21q20.66,0,32.37-9.47t11.71-26.17V476.72q0-4.65,5-5.17l5.68-.52V457.09H558.6Z"/><path class="cls-2" d="M688.1,512.36q0-15-7.15-22.47t-20.23-7.49a35.31,35.31,0,0,0-16,3.7,31.37,31.37,0,0,0-11.88,10.07V485h-29.1v13.78l7.23.52q4.3.17,4.3,5.34v47.7q0,3.1-1.21,4.22a6.8,6.8,0,0,1-3.79,1.46l-5.68.52V571.6h41V557.82l-9.82-.52V515.63a17.32,17.32,0,0,1,4.82-12.23q4.82-5.17,13-5.17t11.11,4.56q2.93,4.56,2.93,14v35.47q0,3.1-1.21,4.22a6.8,6.8,0,0,1-3.79,1.46l-5.68.52V571.6h41V557.82l-9.81-.52Z"/><path class="cls-2" d="M750.34,558.17q-10.42,0-15.93-8.09t-5.51-22.73q0-29.44,20.84-29.45a21.93,21.93,0,0,1,7,1.12q3.36,1.12,3.36,5.77V513l15.84-1.21V489.46a58.74,58.74,0,0,0-28.33-7.06q-15.24,0-27.38,11.45T708.07,528q0,22.73,10.59,34.35t29,11.62q18.42,0,30.65-10l-7.4-13.26Q760.76,558.17,750.34,558.17Z"/><path class="cls-2" d="M820,448.82H789.17v14.29l6,.34q4.3.35,4.3,4.13v84.89q0,5-5,5.51l-5.68.52V571.6h41V557.82L820,557.3Z"/><path class="cls-2" d="M905.58,550.24q-10.68,7.58-21.35,7.58t-15.84-5.6q-5.17-5.59-5.68-14.72a90.76,90.76,0,0,0,26-3.44,42.54,42.54,0,0,0,11.71-5.34,26.7,26.7,0,0,0,11.37-22.39q0-11.37-7.58-17.65t-20.49-6.29q-20.15,0-31.34,13.78t-11.19,34.1q0,20.32,9.81,31.94t30.82,11.62a50,50,0,0,0,18.68-3.27q8.18-3.27,11.62-6.37ZM867.69,504.7Q872.86,497,882.5,497q10.33,0,10.33,10.5,0,5.34-5.34,9.21a27.89,27.89,0,0,1-11.62,5A90.73,90.73,0,0,1,862,523,35.18,35.18,0,0,1,867.69,504.7Z"/><rect class="cls-2" y="365.34" width="11.16" height="42.76"/><polygon class="cls-2" points="19.46 365.34 19.46 408.1 29.89 408.1 29.89 382.54 49.29 408.1 59.05 408.1 59.05 365.34 48.68 365.34 48.74 391.08 29.28 365.34 19.46 365.34"/><polygon class="cls-2" points="85.83 396.27 75.15 365.34 63.13 365.34 79.73 408.1 91.32 408.1 108.03 365.34 96.56 365.34 85.83 396.27"/><polygon class="cls-2" points="145.79 374.25 145.79 365.34 112.06 365.34 112.06 408.1 146.4 408.1 146.4 399.19 123.22 399.19 123.22 391.14 143.59 391.08 143.59 382.24 123.22 382.24 123.22 374.25 145.79 374.25"/><path class="cls-2" d="M173.82,398.71a7.28,7.28,0,0,1-3.93.92,20.9,20.9,0,0,1-7.84-1.83,26.94,26.94,0,0,1-7.66-4.7l-4.33,8.72a29,29,0,0,0,9.12,5.09,31.64,31.64,0,0,0,10.58,1.86,24.07,24.07,0,0,0,8.75-1.52,13.69,13.69,0,0,0,6.19-4.54,11.83,11.83,0,0,0,2.26-7.29,10.92,10.92,0,0,0-2.07-6.92,12.86,12.86,0,0,0-5-3.93,58.62,58.62,0,0,0-7.35-2.56q-3-.92-4.51-1.5a7.91,7.91,0,0,1-2.56-1.52,3,3,0,0,1-1-2.35,2.48,2.48,0,0,1,1.19-2.23,6,6,0,0,1,3.26-.76,21.45,21.45,0,0,1,6.5,1.28,37.51,37.51,0,0,1,7.29,3.29l4.21-8.91A30.16,30.16,0,0,0,179,365.8a32.66,32.66,0,0,0-9.15-1.31,23.21,23.21,0,0,0-9,1.62,13.4,13.4,0,0,0-6,4.61,11.77,11.77,0,0,0-2.1,7,10.41,10.41,0,0,0,2,6.74,12.85,12.85,0,0,0,4.91,3.78,55.9,55.9,0,0,0,7.26,2.47q2.93.79,4.54,1.37a7.86,7.86,0,0,1,2.68,1.56,3.17,3.17,0,0,1,1.07,2.44A3,3,0,0,1,173.82,398.71Z"/><polygon class="cls-2" points="212.76 408.1 212.76 374.55 225.57 374.55 225.57 365.34 188.91 365.34 188.91 374.55 201.6 374.55 201.6 408.1 212.76 408.1"/><polygon class="cls-2" points="251.01 403.83 258.21 403.83 269.13 381.02 269.19 408.1 279.07 408.1 279.07 365.34 266.93 365.34 254.61 390.35 242.23 365.34 230.09 365.34 230.09 408.1 240.03 408.1 240.03 381.02 251.01 403.83"/><polygon class="cls-2" points="321.1 374.25 321.1 365.34 287.37 365.34 287.37 408.1 321.71 408.1 321.71 399.19 298.53 399.19 298.53 391.14 318.9 391.08 318.9 382.24 298.53 382.24 298.53 374.25 321.1 374.25"/><polygon class="cls-2" points="328.54 408.1 338.97 408.1 338.97 382.54 358.37 408.1 368.13 408.1 368.13 365.34 357.76 365.34 357.82 391.08 338.36 365.34 328.54 365.34 328.54 408.1"/><polygon class="cls-2" points="396.62 408.1 396.62 374.55 409.43 374.55 409.43 365.34 372.77 365.34 372.77 374.55 385.45 374.55 385.45 408.1 396.62 408.1"/><path class="cls-2" d="M479.08,106a6,6,0,0,0,1.52-.22c-.17-.2-.33-.41-.49-.64-1.49-2.12-2-4.36-1.05-5s2.85.56,4.34,2.68c.17.25.33.5.48.75a6,6,0,1,0-4.8,2.42Z"/><path class="cls-2" d="M422.79,106a6,6,0,0,0,1.53-.22c-.17-.2-.33-.41-.49-.64-1.49-2.12-2-4.36-1.05-5s2.85.56,4.34,2.68c.17.25.33.5.48.75a6,6,0,1,0-4.8,2.42Z"/><path class="cls-2" d="M446.24,126.74c3,0,3,2,5,2s2-2,4-2,4-1,4-2H442.22A4.36,4.36,0,0,0,446.24,126.74Z"/><path class="cls-2" d="M450.27,140.29c2.64,0,4.33.85,7.19.63s5.18-2.27,6.45-2.27H436.43c4.44,0,5.6,2.27,7.61,2.27S447.63,140.29,450.27,140.29Z"/><path class="cls-2" d="M442.88,150.68h15.86C451,145.59,442.88,150.68,442.88,150.68Z"/><rect class="cls-2" x="33.63" y="251.57" width="61.95" height="15.77" rx="2.97" ry="2.97"/><rect class="cls-2" x="39.19" y="233.71" width="50.84" height="15.77" rx="2.69" ry="2.69"/><rect class="cls-2" x="48.23" y="215.84" width="32.76" height="15.77" rx="2.16" ry="2.16"/><rect class="cls-2" x="798.7" y="251.57" width="61.95" height="15.77" rx="2.97" ry="2.97"/><rect class="cls-2" x="798.7" y="251.57" width="61.95" height="15.77" rx="2.97" ry="2.97"/><rect class="cls-1" x="839.66" y="251.57" width="15.87" height="15.77"/><rect class="cls-1" x="833.23" y="251.57" width="4.38" height="15.77"/><rect class="cls-1" x="830.21" y="251.57" width="1.66" height="15.77"/><rect class="cls-2" x="798.7" y="232.82" width="61.95" height="15.77" rx="2.97" ry="2.97"/><rect class="cls-2" x="798.7" y="232.82" width="61.95" height="15.77" rx="2.97" ry="2.97"/><rect class="cls-1" x="839.66" y="232.82" width="15.87" height="15.77"/><rect class="cls-1" x="833.23" y="232.82" width="4.38" height="15.77"/><rect class="cls-1" x="830.21" y="232.82" width="1.66" height="15.77"/><rect class="cls-2" x="798.7" y="214.07" width="61.95" height="15.77" rx="2.97" ry="2.97"/><rect class="cls-2" x="798.7" y="214.07" width="61.95" height="15.77" rx="2.97" ry="2.97"/><rect class="cls-1" x="839.66" y="214.07" width="15.87" height="15.77"/><rect class="cls-1" x="833.23" y="214.07" width="4.38" height="15.77"/><rect class="cls-1" x="830.21" y="214.07" width="1.66" height="15.77"/><rect class="cls-2" x="798.7" y="195.33" width="61.95" height="15.77" rx="2.97" ry="2.97"/><rect class="cls-2" x="798.7" y="195.33" width="61.95" height="15.77" rx="2.97" ry="2.97"/><rect class="cls-1" x="839.66" y="195.33" width="15.87" height="15.77"/><rect class="cls-1" x="833.23" y="195.33" width="4.38" height="15.77"/><rect class="cls-1" x="830.21" y="195.33" width="1.66" height="15.77"/><rect class="cls-2" x="798.7" y="176.58" width="61.95" height="15.77" rx="2.97" ry="2.97"/><rect class="cls-2" x="798.7" y="176.58" width="61.95" height="15.77" rx="2.97" ry="2.97"/><rect class="cls-1" x="839.66" y="176.58" width="15.87" height="15.77"/><rect class="cls-1" x="833.23" y="176.58" width="4.38" height="15.77"/><rect class="cls-1" x="830.21" y="176.58" width="1.66" height="15.77"/><rect class="cls-2" x="798.7" y="157.83" width="61.95" height="15.77" rx="2.97" ry="2.97"/><rect class="cls-2" x="798.7" y="157.83" width="61.95" height="15.77" rx="2.97" ry="2.97"/><rect class="cls-1" x="839.66" y="157.83" width="15.87" height="15.77"/><rect class="cls-1" x="833.23" y="157.83" width="4.38" height="15.77"/><rect class="cls-1" x="830.21" y="157.83" width="1.66" height="15.77"/><rect class="cls-2" x="798.7" y="139.09" width="61.95" height="15.77" rx="2.97" ry="2.97"/><rect class="cls-2" x="798.7" y="139.09" width="61.95" height="15.77" rx="2.97" ry="2.97"/><rect class="cls-1" x="839.66" y="139.09" width="15.87" height="15.77"/><rect class="cls-1" x="833.23" y="139.09" width="4.38" height="15.77"/><rect class="cls-1" x="830.21" y="139.09" width="1.66" height="15.77"/><rect class="cls-1" x="73.23" y="251.57" width="17.27" height="15.77"/><rect class="cls-1" x="75.29" y="233.71" width="9.67" height="15.77"/><rect class="cls-1" x="70.13" y="215.84" width="7.23" height="15.77"/><rect class="cls-1" x="65.85" y="251.57" width="3.69" height="15.77"/><rect class="cls-1" x="70.72" y="233.71" width="2.51" height="15.77"/><rect class="cls-2" y="428.17" width="567.4" height="6.37" rx="3.18" ry="3.18"/><path class="cls-2" d="M528.78,329.15H494a3,3,0,0,1-2.57-4.55l13.89-23.06a3,3,0,0,1,.2-.29,7.81,7.81,0,0,1,12.17-.22,3.09,3.09,0,0,1,.3.42l13.37,23.19a3,3,0,0,1-2.6,4.5Zm-29.45-6h24.25L513,304.73a1.85,1.85,0,0,0-1.29-.5,1.78,1.78,0,0,0-1.31.6Z"/></g></g></svg>