<?xml version="1.0" encoding="utf-8"?>
<!-- Generator: Adobe Illustrator 21.0.0, SVG Export Plug-In . SVG Version: 6.00 Build 0)  -->
<svg version="1.1" id="Layer_1" xmlns="http://www.w3.org/2000/svg" xmlns:xlink="http://www.w3.org/1999/xlink" x="0px" y="0px"
	 viewBox="0 0 489.8 489.8" style="enable-background:new 0 0 489.8 489.8;" xml:space="preserve">
<style type="text/css">
	.st0{fill:#F4C1CC;}
	.st1{fill:#B75567;}
</style>
<circle class="st0" cx="244.9" cy="244.9" r="214"/>
<g>
	<path class="st1" d="M350,136.4H139.8c-2.5,0-4.4,2-4.4,4.4s2,4.4,4.4,4.4h8.2v128.3c0,6.5,5.3,11.8,11.8,11.8h171
		c6.5,0,11.8-5.3,11.8-11.8V145.3h7.4c2.5,0,4.4-2,4.4-4.4C354.4,138.4,352.4,136.4,350,136.4z M333.7,273.6c0,1.6-1.3,2.9-2.9,2.9
		h-171c-1.6,0-2.9-1.3-2.9-2.9V145.3h176.9V273.6z"/>
	<path class="st1" d="M251.9,314.6v-11.5h15.4c2.5,0,4.4-2,4.4-4.4s-2-4.4-4.4-4.4H227c-2.5,0-4.4,2-4.4,4.4s2,4.4,4.4,4.4h16v11.5
		l-31.2,31.2c-1.7,1.7-1.7,4.5,0,6.3c0.8,0.8,2,1.3,3.1,1.3c1.1,0,2.3-0.4,3.1-1.3l25-25V349c0,2.5,2,4.4,4.4,4.4
		c2.5,0,4.4-2,4.4-4.4v-21.9l24.9,24.9c0.8,0.8,2,1.3,3.1,1.3c1.1,0,2.3-0.4,3.1-1.3c1.7-1.7,1.7-4.5,0-6.3L251.9,314.6z"/>
	<path class="st1" d="M261.6,201.4h33.8c2.5,0,4.4-2,4.4-4.4c0-9.3-3.4-18.3-9.6-25.3c-7.2-8.2-17.7-12.9-28.7-12.9
		c-2.5,0-4.4,2-4.4,4.4V197C257.2,199.5,259.2,201.4,261.6,201.4z M266,168c6.8,1,13,4.4,17.6,9.6c3.8,4.2,6.2,9.5,7,15H266V168z"/>
	<path class="st1" d="M242.6,262.9c26.2,0,47.5-21.3,47.5-47.5c0-2.5-2-4.4-4.4-4.4H247v-38.6c0-2.5-2-4.4-4.4-4.4
		c-26.2,0-47.5,21.3-47.5,47.5C195.1,241.7,216.4,262.9,242.6,262.9z M238.1,177.1v38.4c0,2.5,2,4.4,4.4,4.4h38.4
		c-2.2,19.2-18.6,34.2-38.4,34.2c-21.3,0-38.6-17.3-38.6-38.6C204,195.7,218.9,179.3,238.1,177.1z"/>
</g>
</svg>
